<svg xmlns="http://www.w3.org/2000/svg" width="12.913" height="10.33" viewBox="0 0 12.913 10.33">
  <path id="iconmonstr-photo-camera-thin" d="M9.129,2l.756,1.089a1.088,1.088,0,0,0,.9.46H12.9V12.33H-.017V3.55h3.19a1.088,1.088,0,0,0,.9-.46L4.825,2Zm1.652,2.066a1.629,1.629,0,0,1-1.343-.691l-.6-.859H5.113l-.6.859a1.629,1.629,0,0,1-1.343.69H.521v7.748H12.358V4.066Zm-3.795.517a3.167,3.167,0,0,1,3.228,3.1,3.167,3.167,0,0,1-3.228,3.1,3.167,3.167,0,0,1-3.228-3.1A3.167,3.167,0,0,1,6.986,4.583Zm0,.517a2.639,2.639,0,0,1,2.69,2.583,2.639,2.639,0,0,1-2.69,2.583A2.639,2.639,0,0,1,4.3,7.682,2.639,2.639,0,0,1,6.986,5.1Zm0,1.033a1.551,1.551,0,1,1-1.614,1.55A1.583,1.583,0,0,1,6.986,6.132Zm0,.517A1.034,1.034,0,1,1,5.91,7.682,1.056,1.056,0,0,1,6.986,6.649Zm-4.3-1.033a.538.538,0,1,0-.538.517A.527.527,0,0,0,2.682,5.616Zm-1.614-3.1H2.683v.517H1.068Z" transform="translate(0.017 -2)" fill-rule="evenodd" opacity="0.7"/>
</svg>
