<svg xmlns="http://www.w3.org/2000/svg" width="15.996" height="14.995" viewBox="0 0 15.996 14.995">
  <g id="chat" transform="translate(0 -16.008)" opacity="0.9">
    <g id="Group_159" data-name="Group 159" transform="translate(0 16.008)">
      <g id="Group_157" data-name="Group 157" transform="translate(0 0)">
        <path id="Path_413" data-name="Path 413" d="M15.522,16.818l-1.047-.656a1.009,1.009,0,0,0-1.391.32l-2.948,4.71H1.107A1.109,1.109,0,0,0,0,22.3v6.022a1.109,1.109,0,0,0,1.107,1.109H2.516l.22,1.31a.312.312,0,0,0,.494.2l2.046-1.51H6.428a.312.312,0,0,0,0-.625H5.172a.312.312,0,0,0-.185.061L3.268,30.137l-.179-1.069a.312.312,0,0,0-.308-.261H1.107a.484.484,0,0,1-.483-.484V22.3a.484.484,0,0,1,.483-.484H9.745l-.81,1.294H2.318a.312.312,0,1,0,0,.625H8.544l-.67,1.07a.313.313,0,0,0-.047.175l0,.08H2.318a.312.312,0,1,0,0,.625h5.53l.04,1.338H2.318a.312.312,0,1,0,0,.625h5.9a.311.311,0,0,0,.125-.03l2.152-.966a.312.312,0,0,0,.137-.119l2.552-4.078v5.867a.484.484,0,0,1-.483.484H9.253a.312.312,0,0,0,0,.625H12.7a1.109,1.109,0,0,0,1.107-1.109V22.3a1.1,1.1,0,0,0-.164-.581l2.2-3.511a1.011,1.011,0,0,0-.32-1.391Zm-3.478,2.5.585.367L9.466,24.739l-.018-.078a.312.312,0,0,0-.375-.234l-.263.061ZM9.365,26.476l-.885-.554-.021-.712.451-.1.117.51a.312.312,0,0,0,.375.234l.509-.117.1.451Zm.629-1.4,3.165-5.055.584.366L10.51,25.552l-.061-.263a.312.312,0,0,0-.375-.234Zm4.08-5.219-1.7-1.064.423-.677,1.7,1.064Zm1.237-1.977-.482.77-1.7-1.064.481-.769a.385.385,0,0,1,.53-.122l1.047.656a.385.385,0,0,1,.122.53Z" transform="translate(0 -16.008)"/>
      </g>
      <g id="Group_158" data-name="Group 158" transform="translate(7.535 12.8)">
        <path id="Path_414" data-name="Path 414" d="M241.477,426.333a.312.312,0,1,1,.307-.251A.315.315,0,0,1,241.477,426.333Z" transform="translate(-241.165 -425.709)"/>
      </g>
    </g>
  </g>
</svg>
