<?xml version="1.0" encoding="utf-8"?>
<svg width="342" height="200.829" viewBox="0 0 342 200.829" xmlns="http://www.w3.org/2000/svg">
  <path id="Path_33" data-name="Path 33" d="M340.2,219.9c-.321.235-.651.461-.984.684a33,33,0,0,1-3.838,2.215c-6.974,3.478-15.565,5.176-23.937,6.329-18.773,2.592-37.941,3.095-57.029,3.588-51.568,1.341-103.273,2.675-154.711-.41-20.322-1.219-41.1-3.27-59.517-9.513q-3.957-1.341-7.765-2.955a65.113,65.113,0,0,1-14.159-8,29.419,29.419,0,0,1-8.841-10.274c-3.894-8.092-1.834-17.18,2.61-25.108a77.608,77.608,0,0,1,6.243-9.216c3.425-4.465,7.2-8.79,10.657-13.25,12.283-15.88,20.3-35.938,8.96-52.2-3.27-4.673-7.97-8.776-10.625-13.654-3.392-6.243-3.127-13.172-2.048-19.917.137-.85.3-1.694.443-2.539,1.852-9.98,5.3-20.735,15.976-26.966,11.088-6.475,26.829-6.148,40.6-3.832,21.4,3.6,41.149,11.127,61.087,17.923s40.822,13,62.749,13.675c19.359.595,41.943-3.826,54.791-15.3,12.486-11.142,35.941-11.989,52.856-5.259,11.594,4.62,20.259,12.94,23.913,22.3a27.871,27.871,0,0,1,1.59,5.809,25.423,25.423,0,0,1,.3,5.479,24.38,24.38,0,0,1-.3,2.675c-2.824,18.47-23.161,33.036-35.521,49.535-6.041,8.059-10.307,17.738-6.154,26.428,6.335,13.241,28.366,17.947,41.675,27.8a30.392,30.392,0,0,1,6.54,6.344C352.2,201.062,349.816,212.906,340.2,219.9Z" transform="translate(-7.365 -33.36)" fill="#707070" opacity="0.2"/>
  <g id="Group_41" data-name="Group 41" transform="matrix(1, 0, 0, 1, 109.456009, -7.318529)">
    <rect id="Rectangle_62" data-name="Rectangle 62" width="114.741" height="54.447" transform="translate(19.629 48.497)" fill="#e6e6e6"/>
    <rect id="Rectangle_75" data-name="Rectangle 75" width="108.179" height="45.427" transform="translate(22.91 53.166)" fill="#fff"/>
    <rect id="Rectangle_76" data-name="Rectangle 76" width="2.801" height="2.801" transform="translate(110.197 61.621)" fill="#e6e6e6"/>
    <rect id="Rectangle_77" data-name="Rectangle 77" width="2.801" height="2.801" transform="translate(35.478 61.621)" fill="#1faba7"/>
    <rect id="Rectangle_78" data-name="Rectangle 78" width="9.338" height="9.338" transform="translate(35.396 69.645)" fill="#e6e6e6"/>
    <rect id="Rectangle_80" data-name="Rectangle 80" width="114.741" height="4.875" transform="translate(19.58 45.351)" fill="#1faba7"/>
    <circle id="Ellipse_90" data-name="Ellipse 90" cx="0.903" cy="0.903" r="0.903" transform="translate(22.299 47.967)" fill="#fff"/>
    <circle id="Ellipse_91" data-name="Ellipse 91" cx="0.903" cy="0.903" r="0.903" transform="translate(25.728 47.967)" fill="#fff"/>
    <circle id="Ellipse_92" data-name="Ellipse 92" cx="0.903" cy="0.903" r="0.903" transform="translate(29.158 47.967)" fill="#fff"/>
    <rect id="Rectangle_60" data-name="Rectangle 60" width="151.83" height="0.326" transform="translate(0 102.944)" fill="#e6e6e6"/>
    <rect id="Rectangle_81" data-name="Rectangle 81" width="22.877" height="1.313" transform="translate(54.419 70.579)" fill="#e6e6e6"/>
    <rect id="Rectangle_82" data-name="Rectangle 82" width="35.328" height="1.313" transform="translate(54.419 75.37)" fill="#1faba7"/>
    <rect id="Rectangle_83" data-name="Rectangle 83" width="28.791" height="1.313" transform="translate(54.419 79.883)" fill="#e6e6e6"/>
    <rect id="Rectangle_84" data-name="Rectangle 84" width="16.808" height="1.313" transform="translate(54.419 84.379)" fill="#e6e6e6"/>
    <rect id="Rectangle_85" data-name="Rectangle 85" width="25.368" height="1.313" transform="translate(54.419 88.875)" fill="#e6e6e6"/>
    <rect id="Rectangle_88" data-name="Rectangle 88" width="2.801" height="2.801" transform="translate(115.022 61.621)" fill="#e6e6e6"/>
    <rect id="Rectangle_90" data-name="Rectangle 90" width="2.801" height="2.801" transform="translate(119.846 61.621)" fill="#e6e6e6"/>
    <circle id="Ellipse_88" data-name="Ellipse 88" cx="5.689" cy="5.689" r="5.689" transform="translate(111.269 74.314)" fill="#1faba7" opacity="0.997"/>
    <circle id="Ellipse_97" data-name="Ellipse 97" cx="6.405" cy="6.405" r="6.405" transform="translate(24.335 2.595)" fill="#2f2e41"/>
    <path id="Path_630" data-name="Path 630" d="M204.011,469.083h-2.805l-1.334-10.817h4.139Z" transform="translate(-189.211 -405.283)" fill="#feb8b8"/>
    <path id="Path_631" data-name="Path 631" d="M178.3,519.677h5.408v3.405h-8.814A3.405,3.405,0,0,1,178.3,519.677Z" transform="translate(-168.306 -456.679)" fill="#2f2e41"/>
    <path id="Path_632" data-name="Path 632" d="M184.68,455.671l-2.676-.84,1.965-10.72,3.949,1.239Z" transform="translate(-174.257 -393.436)" fill="#feb8b8"/>
    <path id="Path_633" data-name="Path 633" d="M149.84,500.676,155,502.3l-1.02,3.249-8.409-2.639a3.405,3.405,0,0,1,4.269-2.229h0Z" transform="translate(-143.766 -440.645)" fill="#2f2e41"/>
    <path id="Path_634" data-name="Path 634" d="M188.147,372.469a1.02,1.02,0,0,1-.359-.065l-2.064-.774a1.033,1.033,0,0,1-.644-1.186c.519-2.336,2.29-10.287,3.259-14.552,1.15-5.059,17.92-6,18.634-6.036l.059,0,1.887,2.37c.682,2.191.466,3.9-.642,5.08-3.233,3.442-12.885,1.306-14.035,1.036l-5.13,13.467a1.032,1.032,0,0,1-.964.663Z" transform="translate(-176.812 -314.551)" fill="#2f2e41"/>
    <path id="Path_635" data-name="Path 635" d="M206.385,382.286a1.02,1.02,0,0,1-.359-.065l-2.063-.774a1.033,1.033,0,0,1-.644-1.186c.519-2.336,2.29-10.287,3.259-14.552,1.15-5.059,17.92-6,18.634-6.036l.059,0,1.886,2.37c.682,2.191.466,3.9-.642,5.08-3.233,3.441-12.885,1.306-14.035,1.036l-5.13,13.466a1.032,1.032,0,0,1-.964.663Z" transform="translate(-192.076 -322.767)" fill="#2f2e41"/>
    <path id="Path_636" data-name="Path 636" d="M163.5,291.459a2.415,2.415,0,0,1,.2.321l11.282,1.189,1.624-2.227,3.681,2.012-3.19,5.4-13.836-3.528a2.4,2.4,0,1,1,.237-3.17Z" transform="translate(-155.161 -264.884)" fill="#feb8b8"/>
    <path id="Path_637" data-name="Path 637" d="M284.27,265.205a1.03,1.03,0,0,1-.469-.114,33.509,33.509,0,0,0-10.722-3.549,1,1,0,0,1-.708-.4,1.034,1.034,0,0,1-.191-.8,63.068,63.068,0,0,0,1.1-11.369,5.626,5.626,0,0,1,4.25-5.6h0a18.266,18.266,0,0,1,2.267-.447,5.672,5.672,0,0,1,6.3,6.579c-.726,4.3-1.459,10.314-.822,14.51a1.031,1.031,0,0,1-.416.995A1.013,1.013,0,0,1,284.27,265.205Z" transform="translate(-249.714 -225.023)" fill="#ccc"/>
    <path id="Path_638" data-name="Path 638" d="M259.94,263.579a1.029,1.029,0,0,1-.409-.085l-2.939-1.272a1.031,1.031,0,0,1-.536-1.354l2.272-5.248a2.631,2.631,0,1,1,4.843,2.055l-.015.035-2.272,5.248A1.032,1.032,0,0,1,259.94,263.579Z" transform="translate(-236.162 -234.343)" fill="#ccc"/>
    <circle id="Ellipse_98" data-name="Ellipse 98" cx="5.618" cy="5.618" r="5.618" transform="translate(24.887 4.881)" fill="#feb8b8"/>
    <path id="Path_639" data-name="Path 639" d="M286.484,160.923a20.264,20.264,0,0,0,8.767,2.889l-.924-1.107a6.791,6.791,0,0,0,2.1.417,2.3,2.3,0,0,0,1.873-.877,2.136,2.136,0,0,0,.143-1.973,4.047,4.047,0,0,0-1.273-1.592,7.58,7.58,0,0,0-7.055-1.261A4.531,4.531,0,0,0,288,158.77c-.533.657-1.558,1.243-1.285,2.043Z" transform="translate(-261.698 -153.184)" fill="#2f2e41"/>
    <path id="Path_640" data-name="Path 640" d="M324.634,136.388a10.913,10.913,0,0,1,3.97-2.568,5.586,5.586,0,0,1,3.008-.373,2.867,2.867,0,0,1,2.232,1.881,3.554,3.554,0,0,1-.363,2.43c-.355.758-.829,1.461-1.117,2.247a5.127,5.127,0,0,0,5.16,6.876,25.585,25.585,0,0,0-2.858.842,3,3,0,0,1-2.817-.461,3.834,3.834,0,0,1-.736-2.97l.163-4.691a5.959,5.959,0,0,0-.236-2.365,2.03,2.03,0,0,0-1.769-1.389,2.9,2.9,0,0,0-1.625.733,3.321,3.321,0,0,1-1.6.8c-.6.054-1.29-.391-1.245-.995" transform="translate(-293.626 -133.382)" fill="#2f2e41"/>
    <path id="Path_641" data-name="Path 641" d="M250.733,308.43a2.517,2.517,0,1,1,.97-4.841h0a2.417,2.417,0,0,1,.3.152l10.234-4.594.288-2.776,4.412-.118-.029,4.621a2.489,2.489,0,0,1-1.8,2.366l-11.968,3.406a2.354,2.354,0,0,1-.082.233,2.526,2.526,0,0,1-2.326,1.551Z" transform="translate(-229.673 -269.691)" fill="#feb8b8"/>
    <path id="Path_642" data-name="Path 642" d="M334.808,263.134a1.028,1.028,0,0,1-.4.109l-3.2.2a1.031,1.031,0,0,1-1.091-.964l-.351-5.708a2.631,2.631,0,1,1,5.251-.323l.351,5.708a1.032,1.032,0,0,1-.561.982Z" transform="translate(-297.918 -234.308)" fill="#ccc"/>
    <rect id="Rectangle_91" data-name="Rectangle 91" width="19.672" height="1.601" rx="0.801" transform="translate(11.071 37.715)" fill="#3f3d56"/>
    <path id="Path_643" data-name="Path 643" d="M157.4,300.192V288.984a1.489,1.489,0,0,1,1.487-1.487H179.25a1.488,1.488,0,0,1,1.487,1.487v11.209a1.488,1.488,0,0,1-1.487,1.487H158.892A1.489,1.489,0,0,1,157.4,300.192Z" transform="translate(-153.67 -262.363)" fill="#3f3d56"/>
    <circle id="Ellipse_99" data-name="Ellipse 99" cx="1.373" cy="1.373" r="1.373" transform="translate(14.274 30.853)" fill="#fff"/>
  </g>
  <text id="Upload_your_Resume" data-name="Upload your &#10;Resume" font-size="24" font-family="Poppins-SemiBold, Poppins" font-weight="600" letter-spacing="0.076em" fill="#434343" opacity="1" style="white-space: pre;" x="182.129" y="138.138"><tspan x="85.493" y="138.138" style="font-size: 24px; word-spacing: 0px; letter-spacing: 1.82px;">UPLOAD YOUR </tspan><tspan x="130.649" y="173.138" style="font-size: 24px; word-spacing: 0px; letter-spacing: 1.82px;">RESUME</tspan></text>
</svg>