<svg xmlns="http://www.w3.org/2000/svg" width="12.493" height="16" viewBox="0 0 12.493 16">
  <g id="germany" transform="translate(-56)">
    <path id="Path_171" data-name="Path 171" d="M215.5,352h.5v.471h-.5Z" transform="translate(-154.506 -340.979)" fill="#1beccf"/>
    <path id="Path_172" data-name="Path 172" d="M247.5,352h.5v.471h-.5Z" transform="translate(-185.504 -340.979)" fill="#1beccf"/>
    <path id="Path_173" data-name="Path 173" d="M279.5,352h.5v.471h-.5Z" transform="translate(-216.503 -340.979)" fill="#1beccf"/>
    <path id="Path_174" data-name="Path 174" d="M67.783,6.858a6.3,6.3,0,0,0-1.892-2.178l-.274.381a5.836,5.836,0,0,1,1.413,1.452H65.453a6.859,6.859,0,0,0-.542-1.159,4.629,4.629,0,0,0,.576-2.113,3.241,3.241,0,0,0-6.481,0,4.629,4.629,0,0,0,.576,2.113,6.86,6.86,0,0,0-.542,1.159H57.464a5.836,5.836,0,0,1,1.413-1.452L58.6,4.679a6.245,6.245,0,1,0,9.18,2.178Zm-5.771,8.658a2.957,2.957,0,0,1-2.042-1.629,6.316,6.316,0,0,1-.427-.892h2.469Zm.47,0V12.994H64.95a6.315,6.315,0,0,1-.427.892A2.957,2.957,0,0,1,62.481,15.515Zm0-2.991v-.517h-.47v.517H59.378a9.226,9.226,0,0,1-.4-2.536h3.034V10.5h.47V9.988h3.034a9.225,9.225,0,0,1-.4,2.536ZM56.475,9.988h2.033a9.787,9.787,0,0,0,.38,2.536H57.179A5.737,5.737,0,0,1,56.475,9.988Zm4.208-3.006a12.5,12.5,0,0,0,1.329,1.376v1.16H58.978a9.316,9.316,0,0,1,.4-2.536Zm3.127,0h1.3a9.316,9.316,0,0,1,.4,2.536H62.481V8.358A12.5,12.5,0,0,0,63.81,6.982Zm2.175,3.006h2.033a5.737,5.737,0,0,1-.7,2.536H65.605A9.787,9.787,0,0,0,65.985,9.988Zm1.331-3.006c.017.031.034.062.051.093a5.787,5.787,0,0,1,.651,2.443H65.985a9.768,9.768,0,0,0-.379-2.536Zm-2.368-.47h-.77q.256-.344.462-.68A6.477,6.477,0,0,1,64.948,6.513ZM62.247.47a2.774,2.774,0,0,1,2.771,2.771c0,2.05-2.173,4.157-2.771,4.7-.6-.54-2.771-2.645-2.771-4.7A2.774,2.774,0,0,1,62.247.47ZM59.853,5.832q.206.336.462.68h-.77A6.476,6.476,0,0,1,59.853,5.832ZM57.126,7.076c.016-.031.034-.062.051-.093h1.71a9.768,9.768,0,0,0-.379,2.536H56.475A5.787,5.787,0,0,1,57.126,7.076Zm.34,5.918h1.575a6.9,6.9,0,0,0,.522,1.129,4.725,4.725,0,0,0,.883,1.12A5.8,5.8,0,0,1,57.467,12.994Zm6.579,2.249a4.725,4.725,0,0,0,.883-1.12,6.9,6.9,0,0,0,.522-1.129h1.575A5.8,5.8,0,0,1,64.046,15.243Z" transform="translate(0 0)" fill="#1beccf"/>
    <path id="Path_175" data-name="Path 175" d="M188.487,34.244a2.244,2.244,0,1,0-2.244,2.244A2.246,2.246,0,0,0,188.487,34.244Zm-2.244-1.773a1.773,1.773,0,0,1,1.471.784h-2.942A1.773,1.773,0,0,1,186.244,32.471Zm-1.7,1.255h3.391a1.772,1.772,0,0,1,0,1.036h-3.391a1.772,1.772,0,0,1,0-1.036Zm.225,1.506h2.942a1.772,1.772,0,0,1-2.942,0Z" transform="translate(-123.997 -30.996)" fill="#1beccf"/>
  </g>
</svg>
