<svg xmlns="http://www.w3.org/2000/svg" xmlns:xlink="http://www.w3.org/1999/xlink" width="418" height="812" viewBox="0 0 418 812">
  <defs>
    <filter id="Path_184" x="-229" y="-242" width="584" height="584" filterUnits="userSpaceOnUse">
      <feOffset input="SourceAlpha"/>
      <feGaussianBlur stdDeviation="30" result="blur"/>
      <feFlood flood-opacity="0.161"/>
      <feComposite operator="in" in2="blur"/>
      <feComposite in="SourceGraphic"/>
    </filter>
    <filter id="Path_458" x="-117" y="-130" width="360" height="360" filterUnits="userSpaceOnUse">
      <feOffset input="SourceAlpha"/>
      <feGaussianBlur stdDeviation="15" result="blur-2"/>
      <feFlood flood-opacity="0.161"/>
      <feComposite operator="in" in2="blur-2"/>
      <feComposite in="SourceGraphic"/>
    </filter>
    <filter id="Ellipse_5" x="20" y="470" width="584" height="584" filterUnits="userSpaceOnUse">
      <feOffset input="SourceAlpha"/>
      <feGaussianBlur stdDeviation="30" result="blur-3"/>
      <feFlood flood-opacity="0.161"/>
      <feComposite operator="in" in2="blur-3"/>
      <feComposite in="SourceGraphic"/>
    </filter>
    <filter id="Ellipse_4" x="132" y="582" width="359" height="359" filterUnits="userSpaceOnUse">
      <feOffset input="SourceAlpha"/>
      <feGaussianBlur stdDeviation="15" result="blur-4"/>
      <feFlood flood-opacity="0.161"/>
      <feComposite operator="in" in2="blur-4"/>
      <feComposite in="SourceGraphic"/>
    </filter>
    <linearGradient id="linear-gradient" x1="0.229" y1="0.521" x2="1.232" y2="0.078" gradientUnits="objectBoundingBox">
      <stop offset="0.103" stop-color="#1f9f86"/>
      <stop offset="0.964" stop-color="#17715d"/>
    </linearGradient>
    <linearGradient id="linear-gradient-2" x1="0.482" y1="0.124" x2="0.511" y2="1.033" gradientUnits="objectBoundingBox">
      <stop offset="0" stop-color="#60c1c6"/>
      <stop offset="0.421" stop-color="#42b5a6"/>
      <stop offset="0.988" stop-color="#1f9f86"/>
    </linearGradient>
    <linearGradient id="linear-gradient-3" x1="0.295" y1="0.395" x2="1.295" y2="0.395" gradientUnits="objectBoundingBox">
      <stop offset="0" stop-color="#60c1c6"/>
      <stop offset="0.4" stop-color="#60c1c6"/>
      <stop offset="0.988" stop-color="#42b5a6"/>
    </linearGradient>
    <clipPath id="clip-_01-Splash_Screen_1">
      <rect width="418" height="812"/>
    </clipPath>
  </defs>
  <g id="_01-Splash_Screen_1" data-name="01-Splash Screen – 1" clip-path="url(#clip-_01-Splash_Screen_1)">
    <rect width="418" height="812" fill="#fff"/>
    <g id="Group_2" data-name="Group 2">
      <g transform="matrix(1, 0, 0, 1, 0, 0)" filter="url(#Path_184)">
        <path id="Path_184-2" data-name="Path 184" d="M202,0C313.562,0,404,90.438,404,202S313.562,404,202,404,0,313.562,0,202,90.438,0,202,0Z" transform="translate(-139 -152)" fill="#1beccf"/>
      </g>
      <g transform="matrix(1, 0, 0, 1, 0, 0)" filter="url(#Path_458)">
        <path id="Path_458-2" data-name="Path 458" d="M135,0A135,135,0,1,1,0,135,135,135,0,0,1,135,0Z" transform="translate(-72 -85)" fill="#1faba7"/>
      </g>
    </g>
    <g id="Group_1" data-name="Group 1" transform="translate(-0.044 -0.044)">
      <g transform="matrix(1, 0, 0, 1, 0.04, 0.04)" filter="url(#Ellipse_5)">
        <circle id="Ellipse_5-2" data-name="Ellipse 5" cx="202" cy="202" r="202" transform="translate(110 560)" fill="#1beccf"/>
      </g>
      <g transform="matrix(1, 0, 0, 1, 0.04, 0.04)" filter="url(#Ellipse_4)">
        <circle id="Ellipse_4-2" data-name="Ellipse 4" cx="134.5" cy="134.5" r="134.5" transform="translate(177 627)" fill="#1faba7"/>
      </g>
    </g>
    <g id="topfiyt_logo" transform="translate(-86.164 62.521)">
      <path id="Path_2193" data-name="Path 2193" d="M302.448,432.46A45.689,45.689,0,0,0,309,473.371c10.6,14.578,26.864,20.821,44.53,18.259a36.89,36.89,0,0,0,16.134-6.239c11.917-9.478,14.364-20.64,10.653-26.28-3.4-5.178-8.508-8.756-22.682-5.163C336.064,459.537,308.393,447.645,302.448,432.46Z" transform="translate(-34.911 -63.769)" fill="url(#linear-gradient)"/>
      <path id="Path_2194" data-name="Path 2194" d="M284.189,359.327A45.731,45.731,0,0,1,329,354.219c8.792-27.261-15.275-38.359-24.585-34.149,1.514-9.338-3.453-19.948-17.209-23.121-16.92-3.909-28.629,7.605-28.629,7.605s3.135-9.041-6.049-13.307c-7.407-3.442-15.867,2.71-15.867,2.71A86.183,86.183,0,0,0,307.327,447.49c8.881-2.114,19.942-6.532,26.644-11.642a45.7,45.7,0,0,1-49.781-76.521Z" transform="translate(0 -13.644)" fill="url(#linear-gradient-2)"/>
      <circle id="c" cx="17.945" cy="17.945" r="17.945" transform="translate(286.591 251.479)" fill="url(#linear-gradient-3)"/>
    </g>
  </g>
</svg>
