<svg xmlns="http://www.w3.org/2000/svg" width="16" height="16" viewBox="0 0 16 16">
  <path id="iconmonstr-building-46" d="M8,1.333H9.333V2.667h1.333V5.135L15.333,6.88v8.453H16V16H0v-.667H.667V8h4V2.667H6V1.333H7.333V0H8Zm2,2H5.333v12H6V14H9.333v1.333H10ZM8.667,14.667h-2v.667h2ZM14,15.333h.667V7.342l-4-1.5v9.487h.667V14H14ZM4.667,8.667H1.333v6.667H2V14H4v1.333h.667Zm-1.333,6H2.667v.667h.667Zm10,0H12v.667h1.333ZM2.667,11.333v1.333H2V11.333Zm1.333,0v1.333H3.333V11.333ZM7.333,4.667v8H6.667v-8ZM14,12v.667H11.333V12ZM8.667,4.667v8H8v-8Zm5.333,6v.667H11.333v-.667ZM2.667,9.333v1.333H2V9.333ZM4,9.333v1.333H3.333V9.333Zm10,0V10H11.333V9.333ZM14,8v.667H11.333V8ZM8.667,2h-2v.667h2Z" fill="#1faba7" fill-rule="evenodd"/>
</svg>
